<?xml version="1.0" encoding="UTF-8"?>
<svg width="200" height="200" xmlns="http://www.w3.org/2000/svg">
  <defs>
    <pattern id="gaming-pattern" x="0" y="0" width="40" height="40" patternUnits="userSpaceOnUse">
      <!-- Gaming symbols with opacity -->
      <g opacity="0.1">
        <!-- Plus signs -->
        <path d="M8 18h4v4h4v-4h4v-4h-4v-4h-4v4H8z" fill="#667eea"/>
        <!-- Circles -->
        <circle cx="32" cy="8" r="3" fill="#764ba2"/>
        <!-- Triangles -->
        <path d="M32 32l-3-5h6z" fill="#4caf50"/>
        <!-- X marks -->
        <path d="M5 5l2-2 3 3 3-3 2 2-3 3 3 3-2 2-3-3-3 3-2-2 3-3z" fill="#ff6b6b"/>
        <!-- Squares -->
        <rect x="6" y="30" width="6" height="6" fill="#667eea"/>
        <!-- Diamonds -->
        <path d="M36 20l2 2-2 2-2-2z" fill="#764ba2"/>
      </g>
    </pattern>
  </defs>
  <rect width="100%" height="100%" fill="url(#gaming-pattern)"/>
</svg>